PathFileType	4	(X/Y/Z)	/Users/niels/Desktop/University/Third Semester/Perception and Action/Exam/Gymnastics Motion Tracking/Code for Gym Tracking/Analyzed Data/Webcam_Backflip/id6_2_baseline_Sports2D/id6_2_baseline_Sports2D_px_person00.trc
DataRate	CameraRate	NumFrames	NumMarkers	Units	OrigDataRate	OrigDataStartFrame	OrigNumFrames
29.810126582278482	29.810126582278482	7	22	m	29.810126582278482	39	158
Frame#	Time	Hip			RHip			RKnee			RAnkle			RBigToe			RSmallToe			RHeel			LHip			LKnee			LAnkle			LBigToe			LSmallToe			LHeel			Neck			Head			Nose			RShoulder			RElbow			RWrist			LShoulder			LElbow			LWrist		
		X1	Y1	Z1	X2	Y2	Z2	X3	Y3	Z3	X4	Y4	Z4	X5	Y5	Z5	X6	Y6	Z6	X7	Y7	Z7	X8	Y8	Z8	X9	Y9	Z9	X10	Y10	Z10	X11	Y11	Z11	X12	Y12	Z12	X13	Y13	Z13	X14	Y14	Z14	X15	Y15	Z15	X16	Y16	Z16	X17	Y17	Z17	X18	Y18	Z18	X19	Y19	Z19	X20	Y20	Z20	X21	Y21	Z21	X22	Y22	Z22
39	1.30828025477707	0.9581862012228459	-0.5837951027991514	0.0	0.9577434757254198	-0.5831353572217508	0.0	0.9743448194257912	-0.6818626410856065	0.0	0.9700731827608596	-0.7810975492138128	0.0	1.0079211376796813	-0.7970529396931151	0.0	0.9994349459166373	-0.8003010481751446	0.0	0.9624486413934649	-0.7946057517250793	0.0	0.9594920319587903	-0.582514245850753	0.0	0.9741433722567592	-0.6808951201288603	0.0	0.9704821550632036	-0.7766413419396995	0.0	1.0070875952882938	-0.7956805707491632	0.0	1.004265294372015	-0.7918584715967711	0.0	0.9621236341884373	-0.7898085474392753	0.0	1.0153884466789633	-0.4616392568621745	0.0	1.0378952018984307	-0.3973500979546962	0.0	1.0496038831501349	-0.4333077517108284	0.0	1.012854836267907	-0.4757972139207304	0.0	1.0573414948766326	-0.5279751451856112	0.0	1.1061830581752221	-0.5701677923999396	0.0	1.0070099027648634	-0.4733942438375282	0.0	1.0562681576351127	-0.5254278915957952	0.0	1.101008946034001	-0.5649439493241115	0.0
40	1.3418259023354564	0.9592542835031682	-0.5857068315476579	0.0	0.9593027597123623	-0.5853957767970344	0.0	0.9746191117222344	-0.6838466048584037	0.0	0.969995269045328	-0.7832269378022206	0.0	1.0094642352358345	-0.7991002565726513	0.0	1.0006150451001825	-0.8022459399115982	0.0	0.9626671879418021	-0.7967841251220001	0.0	0.9608170744423589	-0.5849991558943451	0.0	0.9742010057053336	-0.6830184064625738	0.0	0.9704302184786683	-0.7786764591850937	0.0	1.0083521390957773	-0.7972169193144938	0.0	1.0053049643382042	-0.7935945415472718	0.0	0.9618980163397801	-0.7918501348454616	0.0	1.0157623891016996	-0.46325536551636237	0.0	1.0393639031762736	-0.40033540852309935	0.0	1.0506593593804203	-0.4356359602228385	0.0	1.0128643892496851	-0.4783078610419015	0.0	1.046992785349118	-0.5374442767082209	0.0	1.0838829580647475	-0.5887755870481015	0.0	1.0058085264981995	-0.4759721309876332	0.0	1.0446278199056234	-0.5349345321826781	0.0	1.0787028450917528	-0.5820226775281029	0.0
41	1.3753715498938428	0.9609419989281558	-0.5878178087668778	0.0	0.9616010627070423	-0.587738879189328	0.0	0.9751870664370966	-0.6859381313980273	0.0	0.9700027876325164	-0.7851764048689769	0.0	1.010622381023206	-0.800961895975599	0.0	1.0014178717196456	-0.8040633434764752	0.0	0.9630388862909892	-0.7988694912474112	0.0	0.9624580215097533	-0.5874656728376231	0.0	0.9744795456172787	-0.6853117613506198	0.0	0.9703895764392972	-0.7806279529039543	0.0	1.0093642132568037	-0.7987015536832754	0.0	1.0059163451152777	-0.7954189377881506	0.0	0.9618386999500839	-0.7938955031351336	0.0	1.0160580509102182	-0.46447150178906255	0.0	1.0409597000111257	-0.40294315702618166	0.0	1.0516611742822644	-0.43761238143932535	0.0	1.0129035455873259	-0.4799298917889774	0.0	1.0352825756708577	-0.5428987312330563	0.0	1.0580842759346878	-0.5996215985369722	0.0	1.0046118841567577	-0.47771750751908143	0.0	1.0310373126834411	-0.5403237243538479	0.0	1.05300937821354	-0.5917285548591767	0.0
42	1.4089171974522292	0.9630248237773125	-0.5897267812113347	0.0	0.9641767289555423	-0.5897702644890528	0.0	0.9759899783702665	-0.6877452755240504	0.0	0.9700344926516352	-0.78657736220981	0.0	1.0110580282854305	-0.8023143651391949	0.0	1.001681896669087	-0.8054347107801356	0.0	0.9634129676611473	-0.8005435165883659	0.0	0.9642233114167837	-0.5895517278994437	0.0	0.9750598249018456	-0.6872981578960947	0.0	0.9703966771137621	-0.7820641336847152	0.0	1.0098905795162185	-0.799802039527759	0.0	1.005982512815187	-0.7969069340075101	0.0	0.9619137775941163	-0.7955643461208552	0.0	1.016378000296468	-0.46517178268825526	0.0	1.042620367247495	-0.4048137300983741	0.0	1.0525513175029468	-0.43892512508044834	0.0	1.0130455475589812	-0.48048088098350417	0.0	1.0227338829764894	-0.5438663519903567	0.0	1.030573350007002	-0.6020022588010118	0.0	1.0038938115158216	-0.4784517189217058	0.0	1.016521266413584	-0.541176161954151	0.0	1.0258365056851002	-0.5936348985146103	0.0
43	1.4424628450106156	0.9652065660900531	-0.5909049833908259	0.0	0.9664911152346981	-0.5910589066149546	0.0	0.9770847934252511	-0.6888671455170526	0.0	0.9701127946178921	-0.7871691710837314	0.0	1.0107343355031337	-0.8028734955326682	0.0	1.0014795932778682	-0.806106073337713	0.0	0.9636560732661322	-0.801455526847912	0.0	0.9658895820082448	-0.5908007740641227	0.0	0.9760220241518143	-0.6884776243614832	0.0	0.9705045311658781	-0.7825993481689658	0.0	1.0099583682394628	-0.8001502948273052	0.0	1.0055879752465962	-0.7975806334591622	0.0	0.9620653804593626	-0.7964009610523364	0.0	1.0166977590191937	-0.4652262775443639	0.0	1.044394266420178	-0.4057063199625407	0.0	1.0533653693436018	-0.4393510349300741	0.0	1.0133091350240078	-0.4799229493809244	0.0	1.0100608884147328	-0.5403695104541306	0.0	1.0034114274305175	-0.59622395715193	0.0	1.003801764653316	-0.47801488459783736	0.0	1.0024026493345275	-0.5375375764884737	0.0	0.999352107556035	-0.5882005423802228	0.0
44	1.476008492569002	0.9671767887384705	-0.5909115790767032	0.0	0.9681252436840518	-0.5912293316919656	0.0	0.9785885591343183	-0.6890386849845959	0.0	0.9703087534254222	-0.7868087574472795	0.0	1.0099359495056515	-0.8024483301056833	0.0	1.0010441573473738	-0.8059021668297143	0.0	0.9636814369266322	-0.8012770353633747	0.0	0.9672191604505519	-0.5908026423144964	0.0	0.977408436071302	-0.6885195789679993	0.0	0.9707717894961408	-0.782017103242915	0.0	1.0097634060931735	-0.7994753632175373	0.0	1.0049600818194997	-0.7971018616559947	0.0	0.9622528563226121	-0.7960332489347985	0.0	1.0168958691685355	-0.46455569397025676	0.0	1.046358604949837	-0.4055477515874509	0.0	1.0541959661374094	-0.43883851002929763	0.0	1.0136603980895826	-0.4783264797806929	0.0	0.9979913716032761	-0.5329793379773246	0.0	0.9784407170837559	-0.5836145091831113	0.0	1.0041408321481902	-0.4763603615077986	0.0	0.9898249890806977	-0.5299576582094596	0.0	0.9753224376680661	-0.5767814896281079	0.0
45	1.5095541401273884	0.968643572246529	-0.5895629214269901	0.0	0.9688646911982423	-0.5900618692891958	0.0	0.9805642533200215	-0.6881542146293698	0.0	0.9706502367809033	-0.7854205310823485	0.0	1.0090720596336815	-0.8009864740742101	0.0	1.0006079037783162	-0.8047369604361754	0.0	0.9634801408593057	-0.7998092052090324	0.0	0.967997808265119	-0.5893374610164822	0.0	0.9792391114545739	-0.687315617220183	0.0	0.9712440355042967	-0.7802746475881084	0.0	1.009478431953152	-0.7976740075419542	0.0	1.0043483783295266	-0.7953487020019211	0.0	0.9624535301815874	-0.7942694766593368	0.0	1.016806528404722	-0.46320127559886365	0.0	1.0485289223655905	-0.40440964605912955	0.0	1.055095855352673	-0.43746801994178613	0.0	1.0140028911816217	-0.47584450794639854	0.0	0.9870976332366039	-0.5227430247385638	0.0	0.9569233322276883	-0.5662146584568815	0.0	1.0045387475052134	-0.47365267956693163	0.0	0.9794179157367575	-0.519469049592505	0.0	0.9548191859640401	-0.5613998355486136	0.0
